# xmcd CD database file
#
# Track frame offsets:
#	150
#	23707
#	42901
#	60765
#	81788
#	103764
#	120478
#	137835
#	154006
#	184715
#	202134
#	218541
#
# Disc length: 3179 seconds
#
# Revision: 0
# Processed by: cddbd v1.5.2PL0 Copyright (c) Steve Scherf et al.
# Submitted via: CDex 1.80
#
DISCID=990c690c
DTITLE=Keb' Mo' - The Reflection
DYEAR=2011
DGENRE=Blues
TTITLE0=The Whole Enchilada
TTITLE1=Inside Outside
TTITLE2=All The Way
TTITLE3=The Reflection (I See Myself In You)
TTITLE4=Crush On You
TTITLE5=One Of These Nights
TTITLE6=My Baby's Tellin' Lies
TTITLE7=My Shadow
TTITLE8=We Don't Need It
TTITLE9=Just Lookin'
TTITLE10=Walk Through Fire
TTITLE11=Something Within
EXTD=YEAR: 2011
EXTT0=
EXTT1=
EXTT2=
EXTT3=
EXTT4=
EXTT5=
EXTT6=
EXTT7=
EXTT8=
EXTT9=
EXTT10=
EXTT11=
PLAYORDER=
